WixMadeforText_Bd.ufo
<glyph name="seven" format="2">
	<unicode hex="0037"/>
	<advance width="589"/>
	<outline>
		<contour>
			<point x="536" y="715" type="line"/>
			<point x="53" y="715" type="line"/>
			<point x="53" y="606" type="line"/>
			<point x="400" y="606" type="line"/>
			<point x="80" y="0" type="line"/>
			<point x="222" y="0" type="line"/>
			<point x="536" y="606" type="line"/>
		</contour>
	</outline>
</glyph>
<glyph name="L" format="2">
	<unicode hex="004C"/>
	<advance width="577"/>
	<outline>
		<contour>
			<point x="545" y="0" type="line"/>
			<point x="545" y="117" type="line"/>
			<point x="224" y="117" type="line"/>
			<point x="224" y="715" type="line"/>
			<point x="89" y="715" type="line"/>
			<point x="89" y="0" type="line"/>
		</contour>
	</outline>
	<anchor name="bottom.UC" x="318" y="-50"/>
	<anchor name="top.UC" x="154" y="750"/>
	<anchor name="top_right" x="372" y="540"/>
</glyph>
<glyph name="R" format="2">
	<unicode hex="0052"/>
	<advance width="706"/>
	<outline>
		<contour>
			<point x="224" y="0" type="line"/>
			<point x="224" y="601" type="line"/>
			<point x="364" y="601" type="line" smooth="yes"/>
			<point x="429" y="601"/>
			<point x="470" y="561"/>
			<point x="470" y="497" type="curve" smooth="yes"/>
			<point x="470" y="432"/>
			<point x="429" y="392"/>
			<point x="364" y="392" type="curve" smooth="yes"/>
			<point x="214" y="392" type="line"/>
			<point x="214" y="278" type="line"/>
			<point x="364" y="278" type="line" smooth="yes"/>
			<point x="507" y="278"/>
			<point x="606" y="366"/>
			<point x="606" y="497" type="curve" smooth="yes"/>
			<point x="606" y="627"/>
			<point x="507" y="715"/>
			<point x="364" y="715" type="curve" smooth="yes"/>
			<point x="89" y="715" type="line"/>
			<point x="89" y="0" type="line"/>
		</contour>
		<contour>
			<point x="676" y="0" type="line"/>
			<point x="431" y="333" type="line"/>
			<point x="277" y="333" type="line"/>
			<point x="512" y="0" type="line"/>
		</contour>
	</outline>
	<anchor name="top.UC" x="324" y="750"/>
</glyph>
<glyph name="V" format="2">
	<unicode hex="0056"/>
	<advance width="731"/>
	<outline>
		<contour>
			<point x="433" y="0" type="line"/>
			<point x="698" y="715" type="line"/>
			<point x="558" y="715" type="line"/>
			<point x="352" y="106" type="line"/>
			<point x="387" y="106" type="line"/>
			<point x="179" y="715" type="line"/>
			<point x="33" y="715" type="line"/>
			<point x="298" y="0" type="line"/>
		</contour>
	</outline>
</glyph>
<glyph name="Z" format="2">
	<unicode hex="005A"/>
	<advance width="613"/>
	<outline>
		<contour>
			<point x="570" y="0" type="line"/>
			<point x="570" y="115" type="line"/>
			<point x="205" y="115" type="line"/>
			<point x="557" y="600" type="line"/>
			<point x="557" y="715" type="line"/>
			<point x="54" y="715" type="line"/>
			<point x="54" y="600" type="line"/>
			<point x="392" y="600" type="line"/>
			<point x="41" y="115" type="line"/>
			<point x="41" y="0" type="line"/>
		</contour>
	</outline>
	<anchor name="top.UC" x="304" y="750"/>
</glyph>
<glyph name="backslash" format="2">
	<unicode hex="005C"/>
	<advance width="503"/>
	<outline>
		<contour>
			<point x="323" y="0" type="line"/>
			<point x="51" y="732" type="line"/>
			<point x="180" y="732" type="line"/>
			<point x="452" y="0" type="line"/>
		</contour>
	</outline>
</glyph>
<glyph name="i" format="2">
	<unicode hex="0069"/>
	<advance width="274"/>
	<outline>
		<contour>
			<point x="203" y="0" type="line"/>
			<point x="203" y="503" type="line"/>
			<point x="71" y="503" type="line"/>
			<point x="71" y="0" type="line"/>
		</contour>
		<contour>
			<point x="218" y="667" type="curve" smooth="yes"/>
			<point x="218" y="711"/>
			<point x="183" y="745"/>
			<point x="137" y="745" type="curve" smooth="yes"/>
			<point x="90" y="745"/>
			<point x="56" y="711"/>
			<point x="56" y="667" type="curve" smooth="yes"/>
			<point x="56" y="624"/>
			<point x="90" y="589"/>
			<point x="137" y="589" type="curve" smooth="yes"/>
			<point x="183" y="589"/>
			<point x="218" y="624"/>
		</contour>
	</outline>
	<anchor name="ogonek.LC" x="77" y="-30"/>
	<anchor name="bottom.LC" x="137" y="-50"/>
</glyph>
<glyph name="v" format="2">
	<unicode hex="0076"/>
	<advance width="581"/>
	<outline>
		<contour>
			<point x="355" y="0" type="line"/>
			<point x="556" y="503" type="line"/>
			<point x="426" y="503" type="line"/>
			<point x="281" y="92" type="line"/>
			<point x="306" y="92" type="line"/>
			<point x="162" y="503" type="line"/>
			<point x="25" y="503" type="line"/>
			<point x="227" y="0" type="line"/>
		</contour>
	</outline>
</glyph>
<glyph name="copyright" format="2">
	<unicode hex="00A9"/>
	<advance width="848"/>
	<outline>
		<contour>
			<point x="528" y="286" type="line"/>
			<point x="505" y="252"/>
			<point x="472" y="231"/>
			<point x="434" y="231" type="curve" smooth="yes"/>
			<point x="373" y="231"/>
			<point x="328" y="284"/>
			<point x="328" y="359" type="curve" smooth="yes"/>
			<point x="328" y="433"/>
			<point x="373" y="486"/>
			<point x="434" y="486" type="curve" smooth="yes"/>
			<point x="472" y="486"/>
			<point x="505" y="465"/>
			<point x="528" y="432" type="curve"/>
			<point x="591" y="496" type="line"/>
			<point x="557" y="541"/>
			<point x="501" y="572"/>
			<point x="429" y="572" type="curve" smooth="yes"/>
			<point x="309" y="572"/>
			<point x="221" y="483"/>
			<point x="221" y="359" type="curve" smooth="yes"/>
			<point x="221" y="234"/>
			<point x="307" y="145"/>
			<point x="427" y="145" type="curve" smooth="yes"/>
			<point x="499" y="145"/>
			<point x="557" y="176"/>
			<point x="591" y="221" type="curve"/>
		</contour>
		<contour>
			<point x="424" y="-26" type="curve" smooth="yes"/>
			<point x="637" y="-26"/>
			<point x="805" y="144"/>
			<point x="805" y="358" type="curve" smooth="yes"/>
			<point x="805" y="572"/>
			<point x="637" y="742"/>
			<point x="424" y="742" type="curve" smooth="yes"/>
			<point x="211" y="742"/>
			<point x="43" y="572"/>
			<point x="43" y="358" type="curve" smooth="yes"/>
			<point x="43" y="144"/>
			<point x="211" y="-26"/>
		</contour>
		<contour>
			<point x="424" y="55" type="curve" smooth="yes"/>
			<point x="257" y="55"/>
			<point x="125" y="189"/>
			<point x="125" y="358" type="curve" smooth="yes"/>
			<point x="125" y="527"/>
			<point x="257" y="661"/>
			<point x="424" y="661" type="curve" smooth="yes"/>
			<point x="591" y="661"/>
			<point x="723" y="527"/>
			<point x="723" y="358" type="curve" smooth="yes"/>
			<point x="723" y="189"/>
			<point x="591" y="55"/>
		</contour>
	</outline>
</glyph>
<glyph name="AE" format="2">
	<unicode hex="00C6"/>
	<advance width="1042"/>
	<outline>
		<contour>
			<point x="27" y="0" type="line"/>
			<point x="176" y="0" type="line"/>
			<point x="589" y="715" type="line"/>
			<point x="458" y="715" type="line"/>
		</contour>
		<contour>
			<point x="583" y="156" type="line"/>
			<point x="583" y="271" type="line"/>
			<point x="233" y="271" type="line"/>
			<point x="233" y="156" type="line"/>
		</contour>
		<contour>
			<point x="996" y="0" type="line"/>
			<point x="996" y="114" type="line"/>
			<point x="655" y="114" type="line"/>
			<point x="655" y="601" type="line"/>
			<point x="996" y="601" type="line"/>
			<point x="996" y="715" type="line"/>
			<point x="520" y="715" type="line"/>
			<point x="520" y="0" type="line"/>
		</contour>
		<contour>
			<point x="978" y="305" type="line"/>
			<point x="978" y="419" type="line"/>
			<point x="646" y="419" type="line"/>
			<point x="646" y="305" type="line"/>
		</contour>
	</outline>
</glyph>
<glyph name="Oslash" format="2">
	<unicode hex="00D8"/>
	<advance width="828"/>
	<outline>
		<contour>
			<point x="120" y="-30" type="line"/>
			<point x="789" y="665" type="line"/>
			<point x="708" y="745" type="line"/>
			<point x="39" y="50" type="line"/>
		</contour>
		<contour>
			<point x="414" y="-16" type="curve" smooth="yes"/>
			<point x="623" y="-16"/>
			<point x="774" y="143"/>
			<point x="774" y="358" type="curve" smooth="yes"/>
			<point x="774" y="572"/>
			<point x="623" y="731"/>
			<point x="414" y="731" type="curve" smooth="yes"/>
			<point x="205" y="731"/>
			<point x="54" y="572"/>
			<point x="54" y="358" type="curve" smooth="yes"/>
			<point x="54" y="143"/>
			<point x="205" y="-16"/>
		</contour>
		<contour>
			<point x="414" y="104" type="curve" smooth="yes"/>
			<point x="283" y="104"/>
			<point x="196" y="207"/>
			<point x="196" y="358" type="curve" smooth="yes"/>
			<point x="196" y="505"/>
			<point x="286" y="611"/>
			<point x="414" y="611" type="curve" smooth="yes"/>
			<point x="546" y="611"/>
			<point x="632" y="508"/>
			<point x="632" y="358" type="curve" smooth="yes"/>
			<point x="632" y="210"/>
			<point x="543" y="104"/>
		</contour>
	</outline>
</glyph>
<glyph name="ae" format="2">
	<unicode hex="00E6"/>
	<advance width="919"/>
	<outline>
		<contour>
			<point x="803" y="153" type="line"/>
			<point x="769" y="111"/>
			<point x="723" y="88"/>
			<point x="665" y="88" type="curve" smooth="yes"/>
			<point x="570" y="88"/>
			<point x="518" y="151"/>
			<point x="518" y="254" type="curve" smooth="yes"/>
			<point x="518" y="354"/>
			<point x="562" y="416"/>
			<point x="635" y="416" type="curve" smooth="yes"/>
			<point x="705" y="416"/>
			<point x="745" y="361"/>
			<point x="745" y="264" type="curve" smooth="yes"/>
			<point x="745" y="250" type="line"/>
			<point x="874" y="250" type="line"/>
			<point x="874" y="256" type="line" smooth="yes"/>
			<point x="874" y="408"/>
			<point x="775" y="519"/>
			<point x="637" y="519" type="curve" smooth="yes"/>
			<point x="492" y="519"/>
			<point x="386" y="405"/>
			<point x="386" y="251" type="curve" smooth="yes"/>
			<point x="386" y="95"/>
			<point x="496" y="-16"/>
			<point x="660" y="-16" type="curve" smooth="yes"/>
			<point x="744" y="-16"/>
			<point x="818" y="14"/>
			<point x="872" y="72" type="curve"/>
		</contour>
		<contour>
			<point x="874" y="214" type="line"/>
			<point x="874" y="256" type="line"/>
			<point x="858" y="299" type="line"/>
			<point x="468" y="299" type="line"/>
			<point x="468" y="214" type="line"/>
		</contour>
		<contour>
			<point x="480" y="261" type="line"/>
			<point x="480" y="299" type="line" smooth="yes"/>
			<point x="480" y="440"/>
			<point x="390" y="519"/>
			<point x="270" y="519" type="curve" smooth="yes"/>
			<point x="185" y="519"/>
			<point x="117" y="494"/>
			<point x="55" y="439" type="curve"/>
			<point x="124" y="360" type="line"/>
			<point x="167" y="400"/>
			<point x="208" y="418"/>
			<point x="258" y="418" type="curve" smooth="yes"/>
			<point x="333" y="418"/>
			<point x="376" y="376"/>
			<point x="376" y="299" type="curve" smooth="yes"/>
			<point x="376" y="261" type="line"/>
		</contour>
		<contour>
			<point x="423" y="219" type="line"/>
			<point x="423" y="303" type="line"/>
			<point x="270" y="303" type="line" smooth="yes"/>
			<point x="125" y="303"/>
			<point x="39" y="245"/>
			<point x="39" y="144" type="curve" smooth="yes"/>
			<point x="39" y="50"/>
			<point x="114" y="-16"/>
			<point x="236" y="-16" type="curve" smooth="yes"/>
			<point x="382" y="-16"/>
			<point x="477" y="67"/>
			<point x="494" y="184" type="curve"/>
			<point x="406" y="201" type="line"/>
			<point x="405" y="125"/>
			<point x="330" y="81"/>
			<point x="260" y="81" type="curve" smooth="yes"/>
			<point x="202" y="81"/>
			<point x="170" y="110"/>
			<point x="170" y="149" type="curve" smooth="yes"/>
			<point x="170" y="194"/>
			<point x="211" y="219"/>
			<point x="279" y="219" type="curve" smooth="yes"/>
		</contour>
	</outline>
</glyph>
<glyph name="eth" format="2">
	<unicode hex="00F0"/>
	<advance width="609"/>
	<outline>
		<contour>
			<point x="470" y="238" type="line"/>
			<point x="470" y="384"/>
			<point x="419" y="489"/>
			<point x="280" y="489" type="curve" smooth="yes"/>
			<point x="154" y="489"/>
			<point x="45" y="386"/>
			<point x="45" y="238" type="curve" smooth="yes"/>
			<point x="45" y="93"/>
			<point x="156" y="-16"/>
			<point x="306" y="-16" type="curve" smooth="yes"/>
			<point x="464" y="-16"/>
			<point x="571" y="94"/>
			<point x="571" y="286" type="curve" smooth="yes"/>
			<point x="571" y="495"/>
			<point x="457" y="674"/>
			<point x="260" y="774" type="curve"/>
			<point x="151" y="731" type="line"/>
			<point x="353" y="613"/>
			<point x="454" y="467"/>
			<point x="454" y="238" type="curve"/>
		</contour>
		<contour>
			<point x="307" y="94" type="curve" smooth="yes"/>
			<point x="232" y="94"/>
			<point x="182" y="156"/>
			<point x="182" y="238" type="curve" smooth="yes"/>
			<point x="182" y="321"/>
			<point x="232" y="382"/>
			<point x="307" y="382" type="curve" smooth="yes"/>
			<point x="382" y="382"/>
			<point x="433" y="322"/>
			<point x="433" y="238" type="curve" smooth="yes"/>
			<point x="433" y="155"/>
			<point x="382" y="94"/>
		</contour>
		<contour>
			<point x="521" y="652" type="line"/>
			<point x="486" y="742" type="line"/>
			<point x="168" y="605" type="line"/>
			<point x="203" y="515" type="line"/>
		</contour>
	</outline>
</glyph>
<glyph name="divide" format="2">
	<unicode hex="00F7"/>
	<advance width="632"/>
	<outline>
		<contour>
			<point x="537" y="304" type="line"/>
			<point x="537" y="411" type="line"/>
			<point x="95" y="411" type="line"/>
			<point x="95" y="304" type="line"/>
		</contour>
		<contour>
			<point x="316" y="465" type="curve" smooth="yes"/>
			<point x="358" y="465"/>
			<point x="392" y="498"/>
			<point x="392" y="540" type="curve" smooth="yes"/>
			<point x="392" y="583"/>
			<point x="358" y="615"/>
			<point x="316" y="615" type="curve" smooth="yes"/>
			<point x="274" y="615"/>
			<point x="239" y="583"/>
			<point x="239" y="540" type="curve" smooth="yes"/>
			<point x="239" y="498"/>
			<point x="274" y="465"/>
		</contour>
		<contour>
			<point x="316" y="100" type="curve" smooth="yes"/>
			<point x="358" y="100"/>
			<point x="392" y="133"/>
			<point x="392" y="175" type="curve" smooth="yes"/>
			<point x="392" y="217"/>
			<point x="358" y="250"/>
			<point x="316" y="250" type="curve" smooth="yes"/>
			<point x="274" y="250"/>
			<point x="239" y="217"/>
			<point x="239" y="175" type="curve" smooth="yes"/>
			<point x="239" y="133"/>
			<point x="274" y="100"/>
		</contour>
	</outline>
</glyph>
<glyph name="dcroat" format="2">
	<unicode hex="0111"/>
	<advance width="654"/>
	<outline>
		<contour>
			<point x="645" y="552" type="line"/>
			<point x="645" y="647" type="line"/>
			<point x="294" y="647" type="line"/>
			<point x="294" y="552" type="line"/>
		</contour>
		<contour>
			<point x="569" y="0" type="line"/>
			<point x="569" y="720" type="line"/>
			<point x="437" y="720" type="line"/>
			<point x="437" y="334" type="line"/>
			<point x="469" y="334" type="line"/>
			<point x="457" y="430"/>
			<point x="390" y="501"/>
			<point x="283" y="501" type="curve" smooth="yes"/>
			<point x="153" y="501"/>
			<point x="45" y="395"/>
			<point x="45" y="242" type="curve" smooth="yes"/>
			<point x="45" y="89"/>
			<point x="151" y="-16"/>
			<point x="281" y="-16" type="curve" smooth="yes"/>
			<point x="402" y="-16"/>
			<point x="477" y="73"/>
			<point x="472" y="185" type="curve"/>
			<point x="443" y="202" type="line"/>
			<point x="434" y="135"/>
			<point x="381" y="89"/>
			<point x="315" y="89" type="curve" smooth="yes"/>
			<point x="235" y="89"/>
			<point x="182" y="153"/>
			<point x="182" y="242" type="curve" smooth="yes"/>
			<point x="182" y="331"/>
			<point x="233" y="395"/>
			<point x="311" y="395" type="curve" smooth="yes"/>
			<point x="386" y="395"/>
			<point x="437" y="333"/>
			<point x="437" y="239" type="curve" smooth="yes"/>
			<point x="437" y="121" type="line"/>
			<point x="438" y="114" type="line"/>
			<point x="438" y="0" type="line"/>
		</contour>
	</outline>
</glyph>
<glyph name="kgreenlandic" format="2">
	<unicode hex="0138"/>
	<advance width="591"/>
	<outline>
		<contour>
			<point x="203" y="0" type="line"/>
			<point x="203" y="503" type="line"/>
			<point x="71" y="503" type="line"/>
			<point x="71" y="0" type="line"/>
		</contour>
		<contour>
			<point x="583" y="0" type="line"/>
			<point x="325" y="271" type="line"/>
			<point x="325" y="251" type="line"/>
			<point x="555" y="503" type="line"/>
			<point x="399" y="503" type="line"/>
			<point x="185" y="261" type="line"/>
			<point x="175" y="261" type="line"/>
			<point x="417" y="0" type="line"/>
		</contour>
	</outline>
</glyph>
<glyph name="OE" format="2">
	<unicode hex="0152"/>
	<advance width="1152"/>
	<outline>
		<contour>
			<point x="404" y="-16" type="curve" smooth="yes"/>
			<point x="600" y="-16"/>
			<point x="736" y="143"/>
			<point x="736" y="358" type="curve" smooth="yes"/>
			<point x="736" y="572"/>
			<point x="600" y="731"/>
			<point x="404" y="731" type="curve" smooth="yes"/>
			<point x="205" y="731"/>
			<point x="54" y="572"/>
			<point x="54" y="358" type="curve" smooth="yes"/>
			<point x="54" y="143"/>
			<point x="205" y="-16"/>
		</contour>
		<contour>
			<point x="415" y="104" type="curve" smooth="yes"/>
			<point x="284" y="104"/>
			<point x="196" y="210"/>
			<point x="196" y="358" type="curve" smooth="yes"/>
			<point x="196" y="505"/>
			<point x="284" y="610"/>
			<point x="415" y="610" type="curve" smooth="yes"/>
			<point x="542" y="610"/>
			<point x="630" y="505"/>
			<point x="630" y="358" type="curve" smooth="yes"/>
			<point x="630" y="210"/>
			<point x="542" y="104"/>
		</contour>
		<contour>
			<point x="1106" y="0" type="line"/>
			<point x="1106" y="113" type="line"/>
			<point x="765" y="113" type="line"/>
			<point x="765" y="602" type="line"/>
			<point x="1106" y="602" type="line"/>
			<point x="1106" y="715" type="line"/>
			<point x="630" y="715" type="line"/>
			<point x="630" y="0" type="line"/>
		</contour>
		<contour>
			<point x="1088" y="305" type="line"/>
			<point x="1088" y="419" type="line"/>
			<point x="755" y="419" type="line"/>
			<point x="755" y="305" type="line"/>
		</contour>
	</outline>
</glyph>
<glyph name="ringcomb" format="2">
	<unicode hex="030A"/>
	<outline>
		<contour>
			<point x="122" y="679" type="curve" smooth="yes"/>
			<point x="122" y="748"/>
			<point x="68" y="801"/>
			<point x="0" y="801" type="curve" smooth="yes"/>
			<point x="-68" y="801"/>
			<point x="-122" y="748"/>
			<point x="-122" y="679" type="curve" smooth="yes"/>
			<point x="-122" y="611"/>
			<point x="-68" y="558"/>
			<point x="0" y="558" type="curve" smooth="yes"/>
			<point x="68" y="558"/>
			<point x="122" y="611"/>
		</contour>
		<contour>
			<point x="49" y="679" type="curve" smooth="yes"/>
			<point x="49" y="649"/>
			<point x="26" y="626"/>
			<point x="0" y="626" type="curve" smooth="yes"/>
			<point x="-27" y="626"/>
			<point x="-49" y="649"/>
			<point x="-49" y="679" type="curve" smooth="yes"/>
			<point x="-49" y="708"/>
			<point x="-27" y="731"/>
			<point x="0" y="731" type="curve" smooth="yes"/>
			<point x="26" y="731"/>
			<point x="49" y="708"/>
		</contour>
	</outline>
	<anchor name="_top.LC" x="0" y="544"/>
</glyph>
<glyph name="dotbelowcomb" format="2">
	<unicode hex="0323"/>
	<outline>
		<contour>
			<point x="0" y="-249" type="curve" smooth="yes"/>
			<point x="44" y="-249"/>
			<point x="78" y="-216"/>
			<point x="78" y="-174" type="curve" smooth="yes"/>
			<point x="78" y="-131"/>
			<point x="44" y="-98"/>
			<point x="0" y="-98" type="curve" smooth="yes"/>
			<point x="-44" y="-98"/>
			<point x="-78" y="-131"/>
			<point x="-78" y="-174" type="curve" smooth="yes"/>
			<point x="-78" y="-216"/>
			<point x="-44" y="-249"/>
		</contour>
	</outline>
	<anchor name="_bottom.LC" x="0" y="-50"/>
</glyph>
<glyph name="Dje" format="2">
	<unicode hex="0402"/>
	<advance width="725"/>
	<outline>
		<contour>
			<point x="19" y="599" type="line"/>
			<point x="544" y="599" type="line"/>
			<point x="544" y="715" type="line"/>
			<point x="19" y="715" type="line"/>
		</contour>
		<contour>
			<point x="373" y="0" type="line"/>
			<point x="430" y="0" type="line" smooth="yes"/>
			<point x="598" y="0"/>
			<point x="689" y="79"/>
			<point x="689" y="225" type="curve" smooth="yes"/>
			<point x="689" y="370"/>
			<point x="599" y="453"/>
			<point x="440" y="453" type="curve" smooth="yes"/>
			<point x="365" y="453"/>
			<point x="297" y="433"/>
			<point x="238" y="394" type="curve"/>
			<point x="263" y="295" type="line"/>
			<point x="316" y="321"/>
			<point x="365" y="334"/>
			<point x="420" y="334" type="curve" smooth="yes"/>
			<point x="508" y="334"/>
			<point x="553" y="296"/>
			<point x="553" y="223" type="curve" smooth="yes"/>
			<point x="553" y="154"/>
			<point x="508" y="116"/>
			<point x="422" y="116" type="curve" smooth="yes"/>
			<point x="373" y="116" type="line"/>
		</contour>
		<contour>
			<point x="153" y="0" type="line"/>
			<point x="287" y="0" type="line"/>
			<point x="287" y="669" type="line"/>
			<point x="153" y="669" type="line"/>
		</contour>
	</outline>
</glyph>
<glyph name="Ghe" format="2">
	<unicode hex="0413"/>
	<advance width="548"/>
	<outline>
		<contour>
			<point x="89" y="0" type="line"/>
			<point x="224" y="0" type="line"/>
			<point x="224" y="640" type="line"/>
			<point x="181" y="599" type="line"/>
			<point x="534" y="599" type="line"/>
			<point x="534" y="715" type="line"/>
			<point x="89" y="715" type="line"/>
		</contour>
	</outline>
	<anchor name="top.UC" x="317" y="750"/>
</glyph>
<glyph name="Icyr" format="2">
	<unicode hex="0418"/>
	<advance width="758"/>
	<outline>
		<contour>
			<point x="89" y="0" type="line"/>
			<point x="230" y="0" type="line"/>
			<point x="572" y="570" type="line"/>
			<point x="535" y="573" type="line"/>
			<point x="535" y="0" type="line"/>
			<point x="670" y="0" type="line"/>
			<point x="670" y="715" type="line"/>
			<point x="528" y="715" type="line"/>
			<point x="182" y="145" type="line"/>
			<point x="224" y="132" type="line"/>
			<point x="224" y="715" type="line"/>
			<point x="89" y="715" type="line"/>
		</contour>
	</outline>
	<anchor name="top.UC" x="383" y="750"/>
</glyph>
<glyph name="El" format="2">
	<unicode hex="041B"/>
	<advance width="738"/>
	<outline>
		<contour>
			<point x="31" y="0" type="line"/>
			<point x="113" y="0" type="line" smooth="yes"/>
			<point x="213" y="0"/>
			<point x="258" y="45"/>
			<point x="271" y="163" type="curve" smooth="yes"/>
			<point x="327" y="645" type="line"/>
			<point x="285" y="599" type="line"/>
			<point x="552" y="599" type="line"/>
			<point x="514" y="645" type="line"/>
			<point x="514" y="0" type="line"/>
			<point x="649" y="0" type="line"/>
			<point x="649" y="715" type="line"/>
			<point x="201" y="715" type="line"/>
			<point x="141" y="168" type="line" smooth="yes"/>
			<point x="137" y="129"/>
			<point x="125" y="116"/>
			<point x="93" y="116" type="curve" smooth="yes"/>
			<point x="31" y="116" type="line"/>
		</contour>
	</outline>
</glyph>
<glyph name="be" format="2">
	<unicode hex="0431"/>
	<advance width="599"/>
	<outline>
		<contour>
			<point x="306" y="-16" type="curve" smooth="yes"/>
			<point x="455" y="-16"/>
			<point x="554" y="87"/>
			<point x="554" y="243" type="curve" smooth="yes"/>
			<point x="554" y="383"/>
			<point x="470" y="476"/>
			<point x="339" y="476" type="curve" smooth="yes"/>
			<point x="239" y="476"/>
			<point x="164" y="416"/>
			<point x="144" y="321" type="curve"/>
			<point x="168" y="353" type="line"/>
			<point x="173" y="509"/>
			<point x="207" y="562"/>
			<point x="308" y="577" type="curve" smooth="yes"/>
			<point x="509" y="608" type="line"/>
			<point x="495" y="720" type="line"/>
			<point x="289" y="691" type="line" smooth="yes"/>
			<point x="121" y="669"/>
			<point x="48" y="561"/>
			<point x="48" y="338" type="curve" smooth="yes"/>
			<point x="48" y="112"/>
			<point x="141" y="-16"/>
		</contour>
		<contour>
			<point x="300" y="95" type="curve" smooth="yes"/>
			<point x="203" y="95"/>
			<point x="184" y="192"/>
			<point x="184" y="301" type="curve"/>
			<point x="165" y="282" type="line"/>
			<point x="176" y="252" type="line"/>
			<point x="192" y="323"/>
			<point x="240" y="367"/>
			<point x="305" y="367" type="curve" smooth="yes"/>
			<point x="377" y="367"/>
			<point x="417" y="320"/>
			<point x="417" y="234" type="curve" smooth="yes"/>
			<point x="417" y="147"/>
			<point x="374" y="95"/>
		</contour>
	</outline>
</glyph>
<glyph name="ze" format="2">
	<unicode hex="0437"/>
	<advance width="510"/>
	<outline>
		<contour>
			<point x="244" y="-16" type="curve" smooth="yes"/>
			<point x="371" y="-16"/>
			<point x="464" y="54"/>
			<point x="464" y="149" type="curve" smooth="yes"/>
			<point x="464" y="209"/>
			<point x="429" y="252"/>
			<point x="360" y="276" type="curve"/>
			<point x="360" y="257" type="line"/>
			<point x="424" y="280"/>
			<point x="453" y="316"/>
			<point x="453" y="374" type="curve" smooth="yes"/>
			<point x="453" y="458"/>
			<point x="365" y="519"/>
			<point x="244" y="519" type="curve" smooth="yes"/>
			<point x="159" y="519"/>
			<point x="90" y="490"/>
			<point x="34" y="429" type="curve"/>
			<point x="105" y="351" type="line"/>
			<point x="141" y="394"/>
			<point x="184" y="415"/>
			<point x="238" y="415" type="curve" smooth="yes"/>
			<point x="292" y="415"/>
			<point x="325" y="393"/>
			<point x="325" y="356" type="curve" smooth="yes"/>
			<point x="325" y="321"/>
			<point x="299" y="302"/>
			<point x="250" y="302" type="curve" smooth="yes"/>
			<point x="154" y="302" type="line"/>
			<point x="154" y="210" type="line"/>
			<point x="250" y="210" type="line" smooth="yes"/>
			<point x="308" y="210"/>
			<point x="336" y="192"/>
			<point x="336" y="154" type="curve" smooth="yes"/>
			<point x="336" y="112"/>
			<point x="300" y="89"/>
			<point x="238" y="89" type="curve" smooth="yes"/>
			<point x="176" y="89"/>
			<point x="129" y="110"/>
			<point x="90" y="157" type="curve"/>
			<point x="20" y="78" type="line"/>
			<point x="76" y="14"/>
			<point x="149" y="-16"/>
		</contour>
	</outline>
</glyph>
<glyph name="ef" format="2">
	<unicode hex="0444"/>
	<advance width="779"/>
	<outline>
		<contour>
			<point x="325" y="-204" type="line"/>
			<point x="454" y="-204" type="line"/>
			<point x="454" y="37" type="line"/>
			<point x="450" y="53" type="line"/>
			<point x="450" y="440" type="line"/>
			<point x="454" y="458" type="line"/>
			<point x="454" y="720" type="line"/>
			<point x="325" y="720" type="line"/>
			<point x="325" y="458" type="line"/>
			<point x="328" y="440" type="line"/>
			<point x="328" y="53" type="line"/>
			<point x="325" y="37" type="line"/>
		</contour>
		<contour>
			<point x="364" y="-16" type="curve" smooth="yes"/>
			<point x="413" y="-16" type="line" smooth="yes"/>
			<point x="610" y="-16"/>
			<point x="734" y="88"/>
			<point x="734" y="252" type="curve" smooth="yes"/>
			<point x="734" y="416"/>
			<point x="610" y="519"/>
			<point x="413" y="519" type="curve" smooth="yes"/>
			<point x="364" y="519" type="line" smooth="yes"/>
			<point x="168" y="519"/>
			<point x="45" y="416"/>
			<point x="45" y="252" type="curve" smooth="yes"/>
			<point x="45" y="88"/>
			<point x="168" y="-16"/>
		</contour>
		<contour>
			<point x="364" y="93" type="line"/>
			<point x="242" y="93"/>
			<point x="175" y="149"/>
			<point x="175" y="252" type="curve" smooth="yes"/>
			<point x="175" y="355"/>
			<point x="241" y="410"/>
			<point x="364" y="410" type="curve" smooth="yes"/>
			<point x="413" y="410" type="line" smooth="yes"/>
			<point x="537" y="410"/>
			<point x="604" y="354"/>
			<point x="604" y="252" type="curve" smooth="yes"/>
			<point x="604" y="149"/>
			<point x="537" y="93"/>
			<point x="413" y="93" type="curve" smooth="yes"/>
		</contour>
	</outline>
</glyph>
<glyph name="che" format="2">
	<unicode hex="0447"/>
	<advance width="567"/>
	<outline>
		<contour>
			<point x="365" y="0" type="line"/>
			<point x="497" y="0" type="line"/>
			<point x="497" y="503" type="line"/>
			<point x="365" y="503" type="line"/>
		</contour>
		<contour>
			<point x="229" y="151" type="curve" smooth="yes"/>
			<point x="291" y="151"/>
			<point x="359" y="172"/>
			<point x="396" y="205" type="curve"/>
			<point x="376" y="296" type="line"/>
			<point x="343" y="273"/>
			<point x="305" y="261"/>
			<point x="268" y="261" type="curve" smooth="yes"/>
			<point x="203" y="261"/>
			<point x="173" y="296"/>
			<point x="173" y="369" type="curve" smooth="yes"/>
			<point x="173" y="503" type="line"/>
			<point x="41" y="503" type="line"/>
			<point x="41" y="355" type="line" smooth="yes"/>
			<point x="41" y="224"/>
			<point x="108" y="151"/>
		</contour>
	</outline>
</glyph>
<glyph name="shcha" format="2">
	<unicode hex="0449"/>
	<advance width="865"/>
	<outline>
		<contour>
			<point x="351" y="55" type="line"/>
			<point x="480" y="55" type="line"/>
			<point x="480" y="503" type="line"/>
			<point x="351" y="503" type="line"/>
		</contour>
		<contour>
			<point x="631" y="55" type="line"/>
			<point x="760" y="55" type="line"/>
			<point x="760" y="503" type="line"/>
			<point x="631" y="503" type="line"/>
		</contour>
		<contour>
			<point x="71" y="0" type="line"/>
			<point x="736" y="0" type="line"/>
			<point x="711" y="25" type="line"/>
			<point x="711" y="-138" type="line"/>
			<point x="836" y="-138" type="line"/>
			<point x="836" y="106" type="line"/>
			<point x="175" y="106" type="line"/>
			<point x="200" y="81" type="line"/>
			<point x="200" y="503" type="line"/>
			<point x="71" y="503" type="line"/>
		</contour>
	</outline>
</glyph>
<glyph name="hard" format="2">
	<unicode hex="044A"/>
	<advance width="587"/>
	<outline>
		<contour>
			<point x="142" y="0" type="line"/>
			<point x="379" y="0" type="line" smooth="yes"/>
			<point x="497" y="0"/>
			<point x="572" y="70"/>
			<point x="572" y="177" type="curve" smooth="yes"/>
			<point x="572" y="279"/>
			<point x="496" y="345"/>
			<point x="379" y="345" type="curve" smooth="yes"/>
			<point x="218" y="345" type="line"/>
			<point x="218" y="242" type="line"/>
			<point x="368" y="242" type="line" smooth="yes"/>
			<point x="415" y="242"/>
			<point x="440" y="218"/>
			<point x="440" y="173" type="curve" smooth="yes"/>
			<point x="440" y="128"/>
			<point x="415" y="103"/>
			<point x="368" y="103" type="curve" smooth="yes"/>
			<point x="245" y="103" type="line"/>
			<point x="274" y="82" type="line"/>
			<point x="274" y="503" type="line"/>
			<point x="29" y="503" type="line"/>
			<point x="29" y="397" type="line"/>
			<point x="162" y="397" type="line"/>
			<point x="142" y="417" type="line"/>
		</contour>
	</outline>
</glyph>
<glyph name="nje" format="2">
	<unicode hex="045A"/>
	<advance width="820"/>
	<outline>
		<contour>
			<point x="386" y="0" type="line"/>
			<point x="619" y="0" type="line" smooth="yes"/>
			<point x="728" y="0"/>
			<point x="805" y="69"/>
			<point x="805" y="177" type="curve" smooth="yes"/>
			<point x="805" y="277"/>
			<point x="730" y="345"/>
			<point x="619" y="345" type="curve" smooth="yes"/>
			<point x="486" y="345" type="line"/>
			<point x="486" y="242" type="line"/>
			<point x="606" y="242" type="line" smooth="yes"/>
			<point x="651" y="242"/>
			<point x="678" y="217"/>
			<point x="678" y="174" type="curve" smooth="yes"/>
			<point x="678" y="129"/>
			<point x="651" y="103"/>
			<point x="606" y="103" type="curve" smooth="yes"/>
			<point x="502" y="103" type="line"/>
			<point x="518" y="85" type="line"/>
			<point x="518" y="503" type="line"/>
			<point x="386" y="503" type="line"/>
		</contour>
		<contour>
			<point x="71" y="0" type="line"/>
			<point x="203" y="0" type="line"/>
			<point x="203" y="503" type="line"/>
			<point x="71" y="503" type="line"/>
		</contour>
		<contour>
			<point x="159" y="218" type="line"/>
			<point x="431" y="218" type="line"/>
			<point x="431" y="325" type="line"/>
			<point x="159" y="325" type="line"/>
		</contour>
	</outline>
</glyph>
<glyph name="Fita" format="2">
	<unicode hex="0472"/>
	<advance width="828"/>
	<outline>
		<contour>
			<point x="127" y="310" type="line"/>
			<point x="699" y="310" type="line"/>
			<point x="699" y="425" type="line"/>
			<point x="127" y="425" type="line"/>
		</contour>
		<contour>
			<point x="414" y="-16" type="curve" smooth="yes"/>
			<point x="622" y="-16"/>
			<point x="774" y="142"/>
			<point x="774" y="358" type="curve" smooth="yes"/>
			<point x="774" y="573"/>
			<point x="622" y="731"/>
			<point x="414" y="731" type="curve" smooth="yes"/>
			<point x="206" y="731"/>
			<point x="54" y="574"/>
			<point x="54" y="358" type="curve" smooth="yes"/>
			<point x="54" y="142"/>
			<point x="206" y="-16"/>
		</contour>
		<contour>
			<point x="414" y="102" type="curve" smooth="yes"/>
			<point x="281" y="102"/>
			<point x="191" y="206"/>
			<point x="191" y="358" type="curve" smooth="yes"/>
			<point x="191" y="509"/>
			<point x="281" y="613"/>
			<point x="414" y="613" type="curve" smooth="yes"/>
			<point x="547" y="613"/>
			<point x="637" y="509"/>
			<point x="637" y="358" type="curve" smooth="yes"/>
			<point x="637" y="206"/>
			<point x="547" y="102"/>
		</contour>
	</outline>
</glyph>
<glyph name="gheup" format="2">
	<unicode hex="0491"/>
	<advance width="446"/>
	<outline>
		<contour>
			<point x="71" y="0" type="line"/>
			<point x="203" y="0" type="line"/>
			<point x="203" y="482" type="line"/>
			<point x="108" y="397" type="line"/>
			<point x="426" y="397" type="line"/>
			<point x="426" y="632" type="line"/>
			<point x="302" y="632" type="line"/>
			<point x="302" y="464" type="line"/>
			<point x="339" y="503" type="line"/>
			<point x="71" y="503" type="line"/>
		</contour>
	</outline>
</glyph>
<glyph name="fraction" format="2">
	<unicode hex="2044"/>
	<advance width="214"/>
	<outline>
		<contour>
			<point x="-62" y="0" type="line"/>
			<point x="413" y="715" type="line"/>
			<point x="276" y="715" type="line"/>
			<point x="-199" y="0" type="line"/>
		</contour>
	</outline>
</glyph>
<glyph name="dong" format="2">
	<unicode hex="20AB"/>
	<advance width="629"/>
	<outline>
		<contour>
			<point x="267" y="155" type="curve" smooth="yes"/>
			<point x="357" y="155"/>
			<point x="415" y="219"/>
			<point x="413" y="314" type="curve"/>
			<point x="389" y="329" type="line"/>
			<point x="383" y="282"/>
			<point x="346" y="249"/>
			<point x="298" y="249" type="curve" smooth="yes"/>
			<point x="244" y="249"/>
			<point x="207" y="292"/>
			<point x="207" y="355" type="curve" smooth="yes"/>
			<point x="207" y="419"/>
			<point x="244" y="461"/>
			<point x="297" y="461" type="curve" smooth="yes"/>
			<point x="351" y="461"/>
			<point x="386" y="417"/>
			<point x="386" y="351" type="curve" smooth="yes"/>
			<point x="386" y="261" type="line"/>
			<point x="387" y="253" type="line"/>
			<point x="387" y="167" type="line"/>
			<point x="502" y="167" type="line"/>
			<point x="502" y="715" type="line"/>
			<point x="386" y="715" type="line"/>
			<point x="386" y="411" type="line"/>
			<point x="414" y="411" type="line"/>
			<point x="404" y="497"/>
			<point x="348" y="549"/>
			<point x="268" y="549" type="curve" smooth="yes"/>
			<point x="165" y="549"/>
			<point x="86" y="464"/>
			<point x="86" y="352" type="curve" smooth="yes"/>
			<point x="86" y="240"/>
			<point x="164" y="155"/>
		</contour>
		<contour>
			<point x="95" y="0" type="line"/>
			<point x="502" y="0" type="line"/>
			<point x="502" y="97" type="line"/>
			<point x="95" y="97" type="line"/>
		</contour>
		<contour>
			<point x="282" y="590" type="line"/>
			<point x="564" y="590" type="line"/>
			<point x="564" y="664" type="line"/>
			<point x="282" y="664" type="line"/>
		</contour>
	</outline>
</glyph>
<glyph name="minus" format="2">
	<unicode hex="2212"/>
	<advance width="632"/>
	<outline>
		<contour>
			<point x="525" y="304" type="line"/>
			<point x="525" y="411" type="line"/>
			<point x="107" y="411" type="line"/>
			<point x="107" y="304" type="line"/>
		</contour>
	</outline>
</glyph>
<glyph name="De.loclBGR" format="2">
	<advance width="785"/>
	<outline>
		<contour>
			<point x="31" y="-174" type="line"/>
			<point x="158" y="-174" type="line"/>
			<point x="158" y="25" type="line"/>
			<point x="133" y="0" type="line"/>
			<point x="652" y="0" type="line"/>
			<point x="627" y="25" type="line"/>
			<point x="627" y="-174" type="line"/>
			<point x="755" y="-174" type="line"/>
			<point x="755" y="116" type="line"/>
			<point x="31" y="116" type="line"/>
		</contour>
		<contour>
			<point x="70" y="33" type="line"/>
			<point x="207" y="33" type="line"/>
			<point x="406" y="603" type="line"/>
			<point x="377" y="603" type="line"/>
			<point x="576" y="33" type="line"/>
			<point x="719" y="33" type="line"/>
			<point x="469" y="715" type="line"/>
			<point x="319" y="715" type="line"/>
		</contour>
	</outline>
</glyph>
<glyph name="brevehookabovecomb.cap" format="2">
	<outline>
		<contour>
			<point x="0" y="795" type="curve" smooth="yes"/>
			<point x="93" y="795"/>
			<point x="163" y="854"/>
			<point x="172" y="947" type="curve"/>
			<point x="69" y="947" type="line"/>
			<point x="63" y="907"/>
			<point x="36" y="882"/>
			<point x="0" y="882" type="curve" smooth="yes"/>
			<point x="-35" y="882"/>
			<point x="-63" y="907"/>
			<point x="-69" y="947" type="curve"/>
			<point x="-172" y="947" type="line"/>
			<point x="-163" y="854"/>
			<point x="-93" y="795"/>
		</contour>
		<contour>
			<point x="-16" y="935" type="line"/>
			<point x="56" y="963"/>
			<point x="95" y="1007"/>
			<point x="95" y="1058" type="curve" smooth="yes"/>
			<point x="95" y="1111"/>
			<point x="51" y="1151"/>
			<point x="-10" y="1151" type="curve" smooth="yes"/>
			<point x="-48" y="1151"/>
			<point x="-81" y="1137"/>
			<point x="-110" y="1108" type="curve"/>
			<point x="-71" y="1056" type="line"/>
			<point x="-53" y="1070"/>
			<point x="-38" y="1077"/>
			<point x="-23" y="1077" type="curve" smooth="yes"/>
			<point x="-2" y="1077"/>
			<point x="9" y="1066"/>
			<point x="9" y="1047" type="curve" smooth="yes"/>
			<point x="9" y="1026"/>
			<point x="-8" y="1008"/>
			<point x="-45" y="990" type="curve"/>
		</contour>
	</outline>
	<anchor name="_top.UC" x="0" y="750"/>
</glyph>
<glyph name="brevehookabovecomb" format="2">
	<outline>
		<contour>
			<point x="0" y="585" type="curve" smooth="yes"/>
			<point x="84" y="585"/>
			<point x="153" y="645"/>
			<point x="163" y="748" type="curve"/>
			<point x="64" y="748" type="line"/>
			<point x="57" y="696"/>
			<point x="32" y="674"/>
			<point x="0" y="674" type="curve" smooth="yes"/>
			<point x="-31" y="674"/>
			<point x="-57" y="696"/>
			<point x="-64" y="748" type="curve"/>
			<point x="-162" y="748" type="line"/>
			<point x="-153" y="645"/>
			<point x="-84" y="585"/>
		</contour>
		<contour>
			<point x="-14" y="736" type="line"/>
			<point x="60" y="765"/>
			<point x="99" y="809"/>
			<point x="99" y="859" type="curve" smooth="yes"/>
			<point x="99" y="913"/>
			<point x="54" y="954"/>
			<point x="-8" y="954" type="curve" smooth="yes"/>
			<point x="-47" y="954"/>
			<point x="-81" y="939"/>
			<point x="-110" y="910" type="curve"/>
			<point x="-70" y="857" type="line"/>
			<point x="-51" y="872"/>
			<point x="-36" y="879"/>
			<point x="-21" y="879" type="curve" smooth="yes"/>
			<point x="0" y="879"/>
			<point x="12" y="868"/>
			<point x="12" y="849" type="curve" smooth="yes"/>
			<point x="12" y="828"/>
			<point x="-4" y="811"/>
			<point x="-43" y="792" type="curve"/>
		</contour>
	</outline>
	<anchor name="_top.LC" x="0" y="544"/>
</glyph>
<glyph name="brevetildecomb" format="2">
	<outline>
		<contour>
			<point x="0" y="585" type="curve" smooth="yes"/>
			<point x="89" y="585"/>
			<point x="153" y="650"/>
			<point x="163" y="748" type="curve"/>
			<point x="64" y="748" type="line"/>
			<point x="58" y="700"/>
			<point x="35" y="674"/>
			<point x="0" y="674" type="curve" smooth="yes"/>
			<point x="-34" y="674"/>
			<point x="-58" y="701"/>
			<point x="-64" y="748" type="curve"/>
			<point x="-162" y="748" type="line"/>
			<point x="-153" y="650"/>
			<point x="-89" y="585"/>
		</contour>
		<contour>
			<point x="-93" y="784" type="line"/>
			<point x="-85" y="822"/>
			<point x="-75" y="840"/>
			<point x="-60" y="840" type="curve" smooth="yes"/>
			<point x="-51" y="840"/>
			<point x="-35" y="832"/>
			<point x="-8" y="814" type="curve" smooth="yes"/>
			<point x="24" y="793"/>
			<point x="44" y="786"/>
			<point x="67" y="786" type="curve" smooth="yes"/>
			<point x="118" y="786"/>
			<point x="156" y="826"/>
			<point x="168" y="892" type="curve"/>
			<point x="92" y="925" type="line"/>
			<point x="86" y="888"/>
			<point x="74" y="869"/>
			<point x="57" y="869" type="curve" smooth="yes"/>
			<point x="51" y="869"/>
			<point x="49" y="870"/>
			<point x="29" y="884" type="curve" smooth="yes"/>
			<point x="-17" y="915"/>
			<point x="-37" y="923"/>
			<point x="-63" y="923" type="curve" smooth="yes"/>
			<point x="-117" y="923"/>
			<point x="-157" y="883"/>
			<point x="-169" y="817" type="curve"/>
		</contour>
	</outline>
	<anchor name="_top.LC" x="0" y="544"/>
</glyph>
<glyph name="caroncomb.cap" format="2">
	<outline>
		<contour>
			<point x="-202" y="943" type="line"/>
			<point x="-72" y="799" type="line"/>
			<point x="72" y="799" type="line"/>
			<point x="202" y="943" type="line"/>
			<point x="76" y="943" type="line"/>
			<point x="-57" y="815" type="line"/>
			<point x="59" y="815" type="line"/>
			<point x="-75" y="943" type="line"/>
		</contour>
	</outline>
	<anchor name="_top.UC" x="0" y="750"/>
</glyph>
<glyph name="circumflextildecomb.cap" format="2">
	<outline>
		<contour>
			<point x="-187" y="799" type="line"/>
			<point x="-65" y="799" type="line"/>
			<point x="18" y="882" type="line"/>
			<point x="-18" y="882" type="line"/>
			<point x="66" y="799" type="line"/>
			<point x="189" y="799" type="line"/>
			<point x="72" y="935" type="line"/>
			<point x="-70" y="935" type="line"/>
		</contour>
		<contour>
			<point x="-99" y="956" type="line"/>
			<point x="-94" y="995"/>
			<point x="-82" y="1017"/>
			<point x="-65" y="1017" type="curve" smooth="yes"/>
			<point x="-57" y="1017"/>
			<point x="-48" y="1012"/>
			<point x="-25" y="996" type="curve" smooth="yes"/>
			<point x="15" y="968"/>
			<point x="44" y="957"/>
			<point x="74" y="957" type="curve" smooth="yes"/>
			<point x="131" y="957"/>
			<point x="171" y="999"/>
			<point x="180" y="1067" type="curve"/>
			<point x="101" y="1100" type="line"/>
			<point x="96" y="1061"/>
			<point x="83" y="1039"/>
			<point x="66" y="1039" type="curve" smooth="yes"/>
			<point x="57" y="1039"/>
			<point x="43" y="1046"/>
			<point x="19" y="1062" type="curve" smooth="yes"/>
			<point x="-22" y="1090"/>
			<point x="-45" y="1099"/>
			<point x="-72" y="1099" type="curve" smooth="yes"/>
			<point x="-129" y="1099"/>
			<point x="-169" y="1058"/>
			<point x="-179" y="989" type="curve"/>
		</contour>
	</outline>
	<anchor name="_top.UC" x="0" y="750"/>
</glyph>
<glyph name="commaaboverightcomb.short" format="2">
	<outline>
		<contour>
			<point x="37" y="553" type="line"/>
			<point x="72" y="588"/>
			<point x="105" y="640"/>
			<point x="105" y="681" type="curve" smooth="yes"/>
			<point x="105" y="724"/>
			<point x="78" y="753"/>
			<point x="38" y="753" type="curve" smooth="yes"/>
			<point x="2" y="753"/>
			<point x="-25" y="727"/>
			<point x="-25" y="691" type="curve" smooth="yes"/>
			<point x="-25" y="659"/>
			<point x="4" y="630"/>
			<point x="42" y="630" type="curve"/>
			<point x="21" y="656" type="line"/>
			<point x="20" y="629"/>
			<point x="0" y="588"/>
			<point x="-30" y="553" type="curve"/>
		</contour>
	</outline>
	<anchor name="_top_right.LC.short" x="0" y="540"/>
</glyph>
<glyph name="el.loclBGR" format="2">
	<advance width="591"/>
	<outline>
		<contour>
			<point x="24" y="0" type="line"/>
			<point x="156" y="0" type="line"/>
			<point x="302" y="385" type="line"/>
			<point x="284" y="385" type="line"/>
			<point x="430" y="0" type="line"/>
			<point x="566" y="0" type="line"/>
			<point x="359" y="503" type="line"/>
			<point x="231" y="503" type="line"/>
		</contour>
	</outline>
</glyph>
<glyph name="five.dnom" format="2">
	<advance width="374"/>
	<outline>
		<contour>
			<point x="26" y="62" type="line"/>
			<point x="68" y="15"/>
			<point x="122" y="-9"/>
			<point x="186" y="-9" type="curve" smooth="yes"/>
			<point x="276" y="-9"/>
			<point x="345" y="51"/>
			<point x="345" y="138" type="curve" smooth="yes"/>
			<point x="345" y="218"/>
			<point x="288" y="277"/>
			<point x="206" y="277" type="curve" smooth="yes"/>
			<point x="146" y="277"/>
			<point x="106" y="235"/>
			<point x="98" y="175" type="curve"/>
			<point x="128" y="174" type="line"/>
			<point x="142" y="190"/>
			<point x="161" y="200"/>
			<point x="187" y="200" type="curve" smooth="yes"/>
			<point x="223" y="200"/>
			<point x="247" y="172"/>
			<point x="247" y="138" type="curve" smooth="yes"/>
			<point x="247" y="100"/>
			<point x="220" y="71"/>
			<point x="183" y="71" type="curve" smooth="yes"/>
			<point x="142" y="71"/>
			<point x="112" y="87"/>
			<point x="80" y="126" type="curve"/>
		</contour>
		<contour>
			<point x="323" y="330" type="line"/>
			<point x="323" y="408" type="line"/>
			<point x="70" y="408" type="line"/>
			<point x="41" y="174" type="line"/>
			<point x="128" y="174" type="line"/>
			<point x="154" y="384" type="line"/>
			<point x="104" y="330" type="line"/>
		</contour>
	</outline>
</glyph>
<glyph name="four.dnom" format="2">
	<advance width="411"/>
	<outline>
		<contour>
			<point x="329" y="0" type="line"/>
			<point x="329" y="78" type="line"/>
			<point x="381" y="78" type="line"/>
			<point x="381" y="154" type="line"/>
			<point x="329" y="154" type="line"/>
			<point x="329" y="408" type="line"/>
			<point x="229" y="408" type="line"/>
			<point x="30" y="154" type="line"/>
			<point x="30" y="78" type="line"/>
			<point x="229" y="78" type="line"/>
			<point x="229" y="0" type="line"/>
		</contour>
		<contour>
			<point x="229" y="300" type="line"/>
			<point x="229" y="154" type="line"/>
			<point x="122" y="154" type="line"/>
		</contour>
	</outline>
</glyph>
<glyph name="ghe.loclBGR" format="2">
	<advance width="518"/>
	<outline>
		<contour>
			<point x="259" y="-16" type="curve" smooth="yes"/>
			<point x="352" y="-16"/>
			<point x="435" y="17"/>
			<point x="491" y="75" type="curve"/>
			<point x="424" y="157" type="line"/>
			<point x="380" y="111"/>
			<point x="316" y="83"/>
			<point x="256" y="83" type="curve" smooth="yes"/>
			<point x="202" y="83"/>
			<point x="166" y="105"/>
			<point x="166" y="138" type="curve" smooth="yes"/>
			<point x="166" y="172"/>
			<point x="189" y="188"/>
			<point x="277" y="207" type="curve" smooth="yes"/>
			<point x="413" y="235"/>
			<point x="470" y="276"/>
			<point x="470" y="358" type="curve" smooth="yes"/>
			<point x="470" y="455"/>
			<point x="387" y="519"/>
			<point x="262" y="519" type="curve" smooth="yes"/>
			<point x="177" y="519"/>
			<point x="100" y="489"/>
			<point x="45" y="433" type="curve"/>
			<point x="111" y="350" type="line"/>
			<point x="152" y="395"/>
			<point x="207" y="421"/>
			<point x="263" y="421" type="curve" smooth="yes"/>
			<point x="311" y="421"/>
			<point x="342" y="400"/>
			<point x="342" y="368" type="curve" smooth="yes"/>
			<point x="342" y="338"/>
			<point x="321" y="325"/>
			<point x="229" y="306" type="curve" smooth="yes"/>
			<point x="95" y="278"/>
			<point x="40" y="236"/>
			<point x="40" y="151" type="curve" smooth="yes"/>
			<point x="40" y="51"/>
			<point x="128" y="-16"/>
		</contour>
	</outline>
</glyph>
<glyph name="sha.loclBGR" format="2">
	<advance width="895"/>
	<outline>
		<contour>
			<point x="248" y="-16" type="curve" smooth="yes"/>
			<point x="353" y="-16"/>
			<point x="416" y="55"/>
			<point x="433" y="191" type="curve"/>
			<point x="384" y="208" type="line"/>
			<point x="377" y="141"/>
			<point x="332" y="94"/>
			<point x="276" y="94" type="curve" smooth="yes"/>
			<point x="225" y="94"/>
			<point x="196" y="133"/>
			<point x="196" y="203" type="curve" smooth="yes"/>
			<point x="196" y="503" type="line"/>
			<point x="64" y="503" type="line"/>
			<point x="64" y="189" type="line" smooth="yes"/>
			<point x="64" y="59"/>
			<point x="131" y="-16"/>
		</contour>
		<contour>
			<point x="552" y="-16" type="curve" smooth="yes"/>
			<point x="659" y="-16"/>
			<point x="727" y="62"/>
			<point x="727" y="184" type="curve"/>
			<point x="699" y="211" type="line"/>
			<point x="691" y="143"/>
			<point x="646" y="94"/>
			<point x="590" y="94" type="curve" smooth="yes"/>
			<point x="540" y="94"/>
			<point x="511" y="134"/>
			<point x="511" y="203" type="curve" smooth="yes"/>
			<point x="511" y="503" type="line"/>
			<point x="379" y="503" type="line"/>
			<point x="379" y="189" type="line" smooth="yes"/>
			<point x="379" y="59"/>
			<point x="443" y="-16"/>
		</contour>
		<contour>
			<point x="693" y="0" type="line"/>
			<point x="824" y="0" type="line"/>
			<point x="824" y="503" type="line"/>
			<point x="692" y="503" type="line"/>
			<point x="692" y="133" type="line"/>
			<point x="693" y="103" type="line"/>
		</contour>
	</outline>
</glyph>
<glyph name="six.dnom" format="2">
	<advance width="389"/>
	<outline>
		<contour>
			<point x="196" y="-9" type="curve" smooth="yes"/>
			<point x="289" y="-9"/>
			<point x="358" y="51"/>
			<point x="358" y="136" type="curve" smooth="yes"/>
			<point x="358" y="215"/>
			<point x="300" y="273"/>
			<point x="220" y="273" type="curve" smooth="yes"/>
			<point x="180" y="273"/>
			<point x="155" y="254"/>
			<point x="139" y="223" type="curve"/>
			<point x="147" y="220" type="line"/>
			<point x="169" y="271"/>
			<point x="220" y="325"/>
			<point x="322" y="408" type="curve"/>
			<point x="195" y="408" type="line"/>
			<point x="103" y="328"/>
			<point x="33" y="245"/>
			<point x="33" y="147" type="curve" smooth="yes"/>
			<point x="33" y="55"/>
			<point x="100" y="-9"/>
		</contour>
		<contour>
			<point x="196" y="70" type="curve"/>
			<point x="158" y="70"/>
			<point x="130" y="98"/>
			<point x="130" y="134" type="curve" smooth="yes"/>
			<point x="130" y="171"/>
			<point x="158" y="198"/>
			<point x="196" y="198" type="curve" smooth="yes"/>
			<point x="235" y="198"/>
			<point x="262" y="171"/>
			<point x="262" y="134" type="curve" smooth="yes"/>
			<point x="262" y="98"/>
			<point x="235" y="70"/>
		</contour>
	</outline>
</glyph>
<glyph name="tildecomb.narrow" format="2">
	<outline>
		<contour>
			<point x="90" y="739" type="line"/>
			<point x="85" y="697"/>
			<point x="73" y="677"/>
			<point x="59" y="677" type="curve" smooth="yes"/>
			<point x="47" y="677"/>
			<point x="36" y="686"/>
			<point x="19" y="700" type="curve" smooth="yes"/>
			<point x="-4" y="719"/>
			<point x="-32" y="737"/>
			<point x="-64" y="737" type="curve" smooth="yes"/>
			<point x="-112" y="737"/>
			<point x="-151" y="696"/>
			<point x="-164" y="620" type="curve"/>
			<point x="-90" y="585" type="line"/>
			<point x="-85" y="627"/>
			<point x="-74" y="647"/>
			<point x="-59" y="647" type="curve" smooth="yes"/>
			<point x="-48" y="647"/>
			<point x="-36" y="638"/>
			<point x="-19" y="624" type="curve" smooth="yes"/>
			<point x="3" y="605"/>
			<point x="31" y="586"/>
			<point x="64" y="586" type="curve" smooth="yes"/>
			<point x="111" y="586"/>
			<point x="150" y="628"/>
			<point x="163" y="704" type="curve"/>
		</contour>
	</outline>
	<anchor name="_top.LC" x="0" y="544"/>
</glyph>
<glyph name="ve.loclBGR" format="2">
	<advance width="591"/>
	<outline>
		<contour>
			<point x="307" y="-16" type="curve" smooth="yes"/>
			<point x="454" y="-16"/>
			<point x="551" y="71"/>
			<point x="551" y="203" type="curve" smooth="yes"/>
			<point x="551" y="294"/>
			<point x="490" y="366"/>
			<point x="400" y="380" type="curve"/>
			<point x="400" y="371" type="line"/>
			<point x="474" y="387"/>
			<point x="526" y="457"/>
			<point x="526" y="538" type="curve" smooth="yes"/>
			<point x="526" y="653"/>
			<point x="436" y="731"/>
			<point x="303" y="731" type="curve" smooth="yes"/>
			<point x="162" y="731"/>
			<point x="61" y="632"/>
			<point x="61" y="493" type="curve" smooth="yes"/>
			<point x="61" y="216" type="line" smooth="yes"/>
			<point x="61" y="71"/>
			<point x="153" y="-16"/>
		</contour>
		<contour>
			<point x="308" y="94" type="curve" smooth="yes"/>
			<point x="233" y="94"/>
			<point x="189" y="147"/>
			<point x="189" y="235" type="curve" smooth="yes"/>
			<point x="189" y="488" type="line" smooth="yes"/>
			<point x="189" y="569"/>
			<point x="233" y="621"/>
			<point x="303" y="621" type="curve" smooth="yes"/>
			<point x="363" y="621"/>
			<point x="401" y="583"/>
			<point x="401" y="525" type="curve" smooth="yes"/>
			<point x="401" y="465"/>
			<point x="354" y="422"/>
			<point x="287" y="422" type="curve" smooth="yes"/>
			<point x="128" y="422" type="line"/>
			<point x="128" y="317" type="line"/>
			<point x="294" y="317" type="line" smooth="yes"/>
			<point x="372" y="317"/>
			<point x="420" y="275"/>
			<point x="420" y="207" type="curve" smooth="yes"/>
			<point x="420" y="140"/>
			<point x="376" y="94"/>
		</contour>
	</outline>
</glyph>
